<?xml version="1.0" encoding="UTF-8"?>
<svg xmlns="http://www.w3.org/2000/svg" xmlns:xlink="http://www.w3.org/1999/xlink" width="100pt" height="100pt" viewBox="0 0 100 100" version="1.1">
<g id="surface18745398">
<path style=" stroke:none;fill-rule:nonzero;fill:rgb(78.039216%,92.941176%,90.196078%);fill-opacity:1;" d="M 87.214844 56.710938 C 88.351562 54.554688 89 52.105469 89 49.5 C 89 42.878906 84.839844 37.242188 79 35.023438 C 79 35.015625 79 35.007812 79 35 C 79 23.402344 69.597656 14 58 14 C 48.214844 14 40.019531 20.699219 37.6875 29.757812 C 36.210938 29.273438 34.636719 29 33 29 C 25.308594 29 18.976562 34.792969 18.109375 42.253906 C 12.90625 43.351562 9 47.96875 9 53.5 C 9 59.851562 14.148438 65 20.5 65 C 20.675781 65 20.851562 64.988281 21.027344 64.976562 C 21.023438 65.152344 21 65.324219 21 65.5 C 21 76.820312 30.179688 86 41.5 86 C 47.9375 86 53.675781 83.027344 57.433594 78.386719 C 59.613281 80.609375 62.640625 82 66 82 C 70.648438 82 74.675781 79.351562 76.664062 75.480469 C 77.71875 75.816406 78.835938 76 80 76 C 86.074219 76 91 71.074219 91 65 C 91 61.6875 89.53125 58.726562 87.214844 56.710938 Z M 87.214844 56.710938 "/>
<path style=" stroke:none;fill-rule:nonzero;fill:rgb(99.215686%,98.823529%,93.72549%);fill-opacity:1;" d="M 79.875 60.5 C 79.875 60.5 83.515625 60.5 86 60.5 C 88.484375 60.5 90.5 58.484375 90.5 56 C 90.5 53.667969 88.71875 51.769531 86.445312 51.546875 C 86.46875 51.363281 86.5 51.1875 86.5 51 C 86.5 48.515625 84.484375 46.5 82 46.5 C 80.5625 46.5 79.296875 47.1875 78.472656 48.234375 C 78.332031 45.601562 76.171875 43.5 73.5 43.5 C 70.738281 43.5 68.5 45.738281 68.5 48.5 C 68.5 48.945312 68.578125 49.371094 68.6875 49.78125 C 68.046875 49.003906 67.085938 48.5 66 48.5 C 64.21875 48.5 62.765625 49.835938 62.546875 51.554688 C 62.363281 51.53125 62.1875 51.5 62 51.5 C 59.515625 51.5 57.5 53.515625 57.5 56 C 57.5 58.484375 59.515625 60.5 62 60.5 C 64.484375 60.5 71.5 60.5 71.5 60.5 L 76.875 60.5 L 76.875 61 L 79.875 61 Z M 79.875 60.5 "/>
<path style=" stroke:none;fill-rule:nonzero;fill:rgb(27.843137%,16.862745%,16.078431%);fill-opacity:1;" d="M 73.5 43 C 70.46875 43 68 45.46875 68 48.5 C 68 48.515625 68 48.53125 68 48.546875 C 67.398438 48.191406 66.710938 48 66 48 C 64.167969 48 62.589844 49.261719 62.140625 51.003906 C 62.09375 51.003906 62.046875 51 62 51 C 59.242188 51 57 53.242188 57 56 C 57 58.757812 59.242188 61 62 61 L 76.875 61 C 77.152344 61 77.375 60.777344 77.375 60.5 C 77.375 60.222656 77.152344 60 76.875 60 L 62 60 C 59.792969 60 58 58.207031 58 56 C 58 53.792969 59.792969 52 62 52 C 62.117188 52 62.230469 52.015625 62.34375 52.03125 L 62.484375 52.050781 C 62.503906 52.054688 62.523438 52.054688 62.546875 52.054688 C 62.792969 52.054688 63.007812 51.871094 63.039062 51.617188 C 63.230469 50.125 64.503906 49 66 49 C 66.886719 49 67.722656 49.402344 68.300781 50.101562 C 68.398438 50.21875 68.542969 50.28125 68.6875 50.28125 C 68.765625 50.28125 68.84375 50.265625 68.914062 50.226562 C 69.125 50.117188 69.230469 49.878906 69.167969 49.652344 C 69.054688 49.21875 69 48.851562 69 48.5 C 69 46.019531 71.019531 44 73.5 44 C 75.882812 44 77.847656 45.871094 77.972656 48.261719 C 77.984375 48.472656 78.125 48.648438 78.324219 48.714844 C 78.371094 48.730469 78.425781 48.738281 78.476562 48.738281 C 78.625 48.738281 78.769531 48.667969 78.867188 48.546875 C 79.636719 47.5625 80.777344 47 82 47 C 84.207031 47 86 48.792969 86 51 C 86 51.117188 85.984375 51.230469 85.96875 51.34375 L 85.949219 51.484375 C 85.933594 51.617188 85.972656 51.753906 86.054688 51.855469 C 86.140625 51.960938 86.261719 52.027344 86.394531 52.042969 C 88.449219 52.246094 90 53.949219 90 56 C 90 58.207031 88.207031 60 86 60 L 79.875 60 C 79.597656 60 79.375 60.222656 79.375 60.5 C 79.375 60.777344 79.597656 61 79.875 61 L 86 61 C 88.757812 61 91 58.757812 91 56 C 91 53.601562 89.3125 51.585938 86.996094 51.121094 C 87 51.082031 87 51.039062 87 51 C 87 48.242188 84.757812 46 82 46 C 80.824219 46 79.707031 46.414062 78.816406 47.164062 C 78.21875 44.761719 76.054688 43 73.5 43 Z M 73.5 43 "/>
<path style=" stroke:none;fill-rule:nonzero;fill:rgb(27.843137%,16.862745%,16.078431%);fill-opacity:1;" d="M 72 50 C 70.597656 50 69.390625 51 69.085938 52.339844 C 68.71875 52.117188 68.300781 52 67.875 52 C 66.671875 52 65.675781 52.898438 65.523438 54.066406 C 65.320312 54.023438 65.125 54 64.9375 54 C 63.410156 54 62.128906 55.199219 62.019531 56.730469 C 62.011719 56.871094 62.113281 56.988281 62.25 57 C 62.257812 57 62.261719 57 62.269531 57 C 62.398438 57 62.507812 56.898438 62.519531 56.769531 C 62.605469 55.496094 63.667969 54.5 64.9375 54.5 C 65.164062 54.5 65.40625 54.542969 65.675781 54.628906 C 65.695312 54.632812 65.71875 54.636719 65.742188 54.636719 C 65.796875 54.636719 65.851562 54.617188 65.898438 54.582031 C 65.960938 54.535156 66 54.453125 66 54.375 C 66 53.339844 66.839844 52.5 67.875 52.5 C 68.320312 52.5 68.761719 52.667969 69.105469 52.972656 C 69.152344 53.015625 69.210938 53.035156 69.269531 53.035156 C 69.304688 53.035156 69.335938 53.03125 69.363281 53.015625 C 69.453125 52.980469 69.511719 52.898438 69.519531 52.804688 C 69.621094 51.511719 70.710938 50.5 72 50.5 C 72.207031 50.5 72.425781 50.535156 72.683594 50.605469 C 72.703125 50.613281 72.730469 50.617188 72.753906 50.617188 C 72.859375 50.617188 72.960938 50.542969 72.992188 50.433594 C 73.027344 50.300781 72.953125 50.164062 72.820312 50.125 C 72.515625 50.039062 72.257812 50 72 50 Z M 85.882812 51.5 C 84.558594 51.5 83.375 52.398438 83.007812 53.683594 C 82.972656 53.816406 83.046875 53.953125 83.179688 53.992188 C 83.203125 53.996094 83.226562 54 83.25 54 C 83.359375 54 83.460938 53.929688 83.488281 53.816406 C 83.796875 52.746094 84.777344 52 85.882812 52 C 86 52 86.113281 52.015625 86.226562 52.027344 C 86.238281 52.03125 86.246094 52.03125 86.261719 52.03125 C 86.382812 52.03125 86.488281 51.941406 86.507812 51.816406 C 86.523438 51.679688 86.429688 51.550781 86.292969 51.535156 C 86.15625 51.515625 86.023438 51.5 85.882812 51.5 Z M 85.882812 51.5 "/>
<path style=" stroke:none;fill-rule:nonzero;fill:rgb(100%,100%,100%);fill-opacity:1;" d="M 15.40625 51 L 5.5 51 C 5.222656 51 5 50.777344 5 50.5 C 5 50.222656 5.222656 50 5.5 50 L 15.40625 50 C 15.679688 50 15.90625 50.222656 15.90625 50.5 C 15.90625 50.777344 15.683594 51 15.40625 51 Z M 18.5 51 L 17.5 51 C 17.222656 51 17 50.777344 17 50.5 C 17 50.222656 17.222656 50 17.5 50 L 18.5 50 C 18.777344 50 19 50.222656 19 50.5 C 19 50.777344 18.777344 51 18.5 51 Z M 23.492188 53 L 14.5 53 C 14.222656 53 14 52.777344 14 52.5 C 14 52.222656 14.222656 52 14.5 52 L 23.492188 52 C 23.765625 52 23.992188 52.222656 23.992188 52.5 C 23.992188 52.777344 23.765625 53 23.492188 53 Z M 12.5 53 L 11.5 53 C 11.222656 53 11 52.777344 11 52.5 C 11 52.222656 11.222656 52 11.5 52 L 12.5 52 C 12.777344 52 13 52.222656 13 52.5 C 13 52.777344 12.777344 53 12.5 53 Z M 9.5 53 L 7.5 53 C 7.222656 53 7 52.777344 7 52.5 C 7 52.222656 7.222656 52 7.5 52 L 9.5 52 C 9.777344 52 10 52.222656 10 52.5 C 10 52.777344 9.777344 53 9.5 53 Z M 15.5 55 L 13.5 55 C 13.222656 55 13 54.777344 13 54.5 C 13 54.222656 13.222656 54 13.5 54 L 15.5 54 C 15.777344 54 16 54.222656 16 54.5 C 16 54.777344 15.777344 55 15.5 55 Z M 18.5 46 C 18.324219 46 17.675781 46 17.5 46 C 17.222656 46 17 46.222656 17 46.5 C 17 46.777344 17.222656 47 17.5 47 C 17.675781 47 18.324219 47 18.5 47 C 18.777344 47 19 46.777344 19 46.5 C 19 46.222656 18.777344 46 18.5 46 Z M 18.5 48 C 18.324219 48 13.675781 48 13.5 48 C 13.222656 48 13 48.222656 13 48.5 C 13 48.777344 13.222656 49 13.5 49 C 13.675781 49 18.324219 49 18.5 49 C 18.777344 49 19 48.777344 19 48.5 C 19 48.222656 18.777344 48 18.5 48 Z M 23.5 50 C 23.324219 50 20.675781 50 20.5 50 C 20.222656 50 20 50.222656 20 50.5 C 20 50.777344 20.222656 51 20.5 51 C 20.675781 51 23.324219 51 23.5 51 C 23.777344 51 24 50.777344 24 50.5 C 24 50.222656 23.777344 50 23.5 50 Z M 23.5 50 "/>
<path style=" stroke:none;fill-rule:nonzero;fill:rgb(100%,100%,100%);fill-opacity:1;" d="M 72.5 24 L 62.5 24 C 62.222656 24 62 23.777344 62 23.5 C 62 23.222656 62.222656 23 62.5 23 L 72.5 23 C 72.777344 23 73 23.222656 73 23.5 C 73 23.777344 72.777344 24 72.5 24 Z M 76.5 24 L 74.5 24 C 74.222656 24 74 23.777344 74 23.5 C 74 23.222656 74.222656 23 74.5 23 L 76.5 23 C 76.777344 23 77 23.222656 77 23.5 C 77 23.777344 76.777344 24 76.5 24 Z M 81.5 26 L 71.5 26 C 71.222656 26 71 25.777344 71 25.5 C 71 25.222656 71.222656 25 71.5 25 L 81.5 25 C 81.777344 25 82 25.222656 82 25.5 C 82 25.777344 81.777344 26 81.5 26 Z M 69.5 26 L 68.5 26 C 68.222656 26 68 25.777344 68 25.5 C 68 25.222656 68.222656 25 68.5 25 L 69.5 25 C 69.777344 25 70 25.222656 70 25.5 C 70 25.777344 69.777344 26 69.5 26 Z M 66.375 26 L 64.5 26 C 64.222656 26 64 25.777344 64 25.5 C 64 25.222656 64.222656 25 64.5 25 L 66.375 25 C 66.652344 25 66.875 25.222656 66.875 25.5 C 66.875 25.777344 66.652344 26 66.375 26 Z M 75.5 22 L 70.5 22 C 70.222656 22 70 21.777344 70 21.5 C 70 21.222656 70.222656 21 70.5 21 L 75.5 21 C 75.777344 21 76 21.222656 76 21.5 C 76 21.777344 75.777344 22 75.5 22 Z M 72.5 28 L 70.5 28 C 70.222656 28 70 27.777344 70 27.5 C 70 27.222656 70.222656 27 70.5 27 L 72.5 27 C 72.777344 27 73 27.222656 73 27.5 C 73 27.777344 72.777344 28 72.5 28 Z M 72.5 28 "/>
<path style=" stroke:none;fill-rule:nonzero;fill:rgb(40%,40%,40%);fill-opacity:1;" d="M 37 71.300781 C 32.976562 71.300781 29.699219 68.027344 29.699219 64 L 29.699219 36 C 29.699219 31.976562 32.972656 28.699219 37 28.699219 L 65 28.699219 C 69.023438 28.699219 72.300781 31.972656 72.300781 36 L 72.300781 64 C 72.300781 68.023438 69.027344 71.300781 65 71.300781 Z M 37 71.300781 "/>
<path style=" stroke:none;fill-rule:nonzero;fill:rgb(27.843137%,16.862745%,16.078431%);fill-opacity:1;" d="M 65 29.398438 C 68.640625 29.398438 71.601562 32.359375 71.601562 36 L 71.601562 64 C 71.601562 67.640625 68.640625 70.601562 65 70.601562 L 37 70.601562 C 33.359375 70.601562 30.398438 67.640625 30.398438 64 L 30.398438 36 C 30.398438 32.359375 33.359375 29.398438 37 29.398438 L 65 29.398438 M 65 28 L 37 28 C 32.582031 28 29 31.582031 29 36 L 29 64 C 29 68.417969 32.582031 72 37 72 L 65 72 C 69.417969 72 73 68.417969 73 64 L 73 36 C 73 31.582031 69.417969 28 65 28 Z M 65 28 "/>
<path style=" stroke:none;fill-rule:nonzero;fill:rgb(40%,40%,40%);fill-opacity:1;" d="M 68.421875 47.933594 L 68.429688 49.582031 L 68.480469 63.125 C 68.488281 65.457031 66.589844 67.371094 64.257812 67.378906 L 37.878906 67.480469 C 35.546875 67.488281 33.628906 65.589844 33.621094 63.257812 L 33.519531 36.878906 C 33.511719 34.546875 35.414062 32.628906 37.742188 32.621094 L 61.648438 32.53125 L 64.121094 32.519531 C 66.453125 32.511719 68.371094 34.414062 68.378906 36.742188 L 68.390625 39.925781 L 68.402344 42.75 L 68.40625 43.808594 L 68.414062 46.519531 L 68.421875 47.933594 "/>
<path style=" stroke:none;fill-rule:nonzero;fill:rgb(27.843137%,16.862745%,16.078431%);fill-opacity:1;" d="M 68.445312 47.511719 C 68.167969 47.511719 67.945312 47.285156 67.945312 47.011719 L 67.945312 43.304688 C 67.945312 43.027344 68.167969 42.804688 68.445312 42.804688 C 68.722656 42.804688 68.945312 43.027344 68.945312 43.304688 L 68.945312 47.011719 C 68.945312 47.285156 68.722656 47.511719 68.445312 47.511719 Z M 68.445312 47.511719 "/>
<path style=" stroke:none;fill-rule:nonzero;fill:rgb(27.843137%,16.862745%,16.078431%);fill-opacity:1;" d="M 68.507812 41.058594 C 68.230469 41.058594 68.007812 40.835938 68.007812 40.558594 L 68.007812 38.648438 C 68.007812 38.371094 68.230469 38.148438 68.507812 38.148438 C 68.785156 38.148438 69.007812 38.371094 69.007812 38.648438 L 69.007812 40.558594 C 69.007812 40.835938 68.785156 41.058594 68.507812 41.058594 Z M 68.507812 41.058594 "/>
<path style=" stroke:none;fill-rule:nonzero;fill:rgb(27.843137%,16.862745%,16.078431%);fill-opacity:1;" d="M 64.25 67.9375 L 37.8125 67.9375 C 35.195312 67.9375 33.0625 65.808594 33.0625 63.1875 L 33.0625 36.75 C 33.0625 34.132812 35.195312 32 37.8125 32 L 61.773438 32 C 62.050781 32 62.273438 32.222656 62.273438 32.5 C 62.273438 32.777344 62.050781 33 61.773438 33 L 37.8125 33 C 35.746094 33 34.0625 34.683594 34.0625 36.75 L 34.0625 63.1875 C 34.0625 65.253906 35.746094 66.9375 37.8125 66.9375 L 64.25 66.9375 C 66.316406 66.9375 68 65.253906 68 63.1875 L 68 49.613281 C 68 49.339844 68.222656 49.113281 68.5 49.113281 C 68.777344 49.113281 69 49.339844 69 49.613281 L 69 63.1875 C 69 65.808594 66.867188 67.9375 64.25 67.9375 Z M 64.25 67.9375 "/>
<path style=" stroke:none;fill-rule:nonzero;fill:rgb(99.215686%,98.823529%,93.72549%);fill-opacity:1;" d="M 36.5 73.5 C 36.5 73.5 38.066406 73.5 40 73.5 C 41.933594 73.5 43.5 71.933594 43.5 70 C 43.5 68.21875 42.164062 66.765625 40.445312 66.546875 C 40.472656 66.367188 40.5 66.1875 40.5 66 C 40.5 64.066406 38.933594 62.5 37 62.5 C 35.96875 62.5 35.050781 62.953125 34.410156 63.664062 C 34.027344 61.855469 32.421875 60.5 30.5 60.5 C 28.289062 60.5 26.5 62.289062 26.5 64.5 C 26.5 64.691406 26.53125 64.875 26.554688 65.058594 C 26.128906 64.714844 25.59375 64.5 25 64.5 C 23.773438 64.5 22.753906 65.386719 22.546875 66.554688 C 22.367188 66.527344 22.1875 66.5 22 66.5 C 20.066406 66.5 18.5 68.066406 18.5 70 C 18.5 71.933594 20.066406 73.5 22 73.5 C 23.933594 73.5 29.5 73.5 29.5 73.5 L 29.5 74 L 36.5 74 Z M 36.5 73.5 "/>
<path style=" stroke:none;fill-rule:nonzero;fill:rgb(27.843137%,16.862745%,16.078431%);fill-opacity:1;" d="M 38.25 69 C 38.113281 69 38 68.886719 38 68.75 C 38 67.527344 38.996094 66.53125 40.21875 66.53125 C 40.253906 66.539062 40.953125 66.53125 41.460938 66.667969 C 41.59375 66.703125 41.675781 66.839844 41.636719 66.972656 C 41.601562 67.109375 41.464844 67.1875 41.332031 67.148438 C 40.886719 67.03125 40.230469 67.03125 40.21875 67.03125 C 39.269531 67.03125 38.5 67.804688 38.5 68.75 C 38.5 68.886719 38.386719 69 38.25 69 Z M 31.5 73 C 31.222656 73 31 73.222656 31 73.5 C 31 73.777344 31.222656 74 31.5 74 C 31.777344 74 32 73.777344 32 73.5 C 32 73.222656 31.777344 73 31.5 73 Z M 31.5 73 "/>
<path style=" stroke:none;fill-rule:nonzero;fill:rgb(27.843137%,16.862745%,16.078431%);fill-opacity:1;" d="M 40 74 L 36.5 74 C 36.222656 74 36 73.777344 36 73.5 C 36 73.222656 36.222656 73 36.5 73 L 40 73 C 41.652344 73 43 71.652344 43 70 C 43 68.503906 41.875 67.230469 40.382812 67.039062 C 40.246094 67.023438 40.128906 66.953125 40.046875 66.84375 C 39.964844 66.738281 39.929688 66.601562 39.953125 66.46875 C 39.976562 66.3125 40 66.160156 40 66 C 40 64.347656 38.652344 63 37 63 C 36.148438 63 35.363281 63.355469 34.78125 64 C 34.65625 64.140625 34.460938 64.199219 34.28125 64.148438 C 34.097656 64.097656 33.960938 63.953125 33.921875 63.769531 C 33.578125 62.164062 32.140625 61 30.5 61 C 28.570312 61 27 62.570312 27 64.5 C 27 64.644531 27.019531 64.78125 27.039062 64.917969 C 27.070312 65.121094 26.976562 65.355469 26.800781 65.457031 C 26.621094 65.558594 26.402344 65.574219 26.242188 65.449219 C 25.878906 65.15625 25.449219 65 25 65 C 24.035156 65 23.207031 65.691406 23.035156 66.644531 C 22.988281 66.910156 22.742188 67.089844 22.46875 67.050781 C 22.3125 67.023438 22.160156 67 22 67 C 20.347656 67 19 68.347656 19 70 C 19 71.652344 20.347656 73 22 73 L 29.5 73 C 29.777344 73 30 73.222656 30 73.5 C 30 73.777344 29.777344 74 29.5 74 L 22 74 C 19.792969 74 18 72.207031 18 70 C 18 67.792969 19.792969 66 22 66 C 22.058594 66 22.117188 66.003906 22.175781 66.007812 C 22.589844 64.820312 23.710938 64 25 64 C 25.347656 64 25.6875 64.0625 26.011719 64.179688 C 26.175781 61.847656 28.125 60 30.5 60 C 32.332031 60 33.964844 61.128906 34.652344 62.773438 C 35.332031 62.277344 36.15625 62 37 62 C 39.207031 62 41 63.792969 41 66 C 41 66.046875 41 66.09375 40.996094 66.140625 C 42.738281 66.589844 44 68.167969 44 70 C 44 72.207031 42.207031 74 40 74 Z M 40 74 "/>
<path style=" stroke:none;fill-rule:nonzero;fill:rgb(27.843137%,16.862745%,16.078431%);fill-opacity:1;" d="M 34.5 73 C 34.339844 73 33.660156 73 33.5 73 C 33.222656 73 33 73.222656 33 73.5 C 33 73.777344 33.222656 74 33.5 74 C 33.660156 74 34.339844 74 34.5 74 C 34.777344 74 35 73.777344 35 73.5 C 35 73.222656 34.777344 73 34.5 73 Z M 34.5 73 "/>
<path style=" stroke:none;fill-rule:nonzero;fill:rgb(100%,99.607843%,95.686275%);fill-opacity:1;" d="M 61.078125 53.207031 C 63.238281 55.453125 63.6875 56.550781 63.757812 56.683594 C 64.652344 58.351562 62.769531 58.476562 62.769531 58.476562 L 59.164062 58.535156 C 59.164062 58.535156 58.386719 58.710938 57.367188 57.917969 C 56.019531 56.886719 54.75 54.191406 53.753906 54.535156 C 52.75 54.894531 52.78125 57.324219 52.78125 57.324219 C 52.78125 57.324219 52.785156 57.75 52.5625 58.03125 C 52.3125 58.320312 51.828125 58.296875 51.828125 58.296875 L 50.210938 58.296875 C 50.210938 58.296875 46.648438 58.628906 43.511719 54.96875 C 40.089844 50.972656 37.074219 43.097656 37.074219 43.097656 C 37.074219 43.097656 36.902344 42.601562 37.085938 42.347656 C 37.300781 42.066406 37.878906 42.054688 37.878906 42.054688 L 41.738281 42.035156 C 41.738281 42.035156 42.101562 42.109375 42.359375 42.320312 C 42.574219 42.492188 42.699219 42.824219 42.699219 42.824219 C 42.699219 42.824219 43.320312 44.601562 44.144531 46.195312 C 45.757812 49.316406 46.511719 50.003906 47.054688 49.671875 C 47.855469 49.179688 47.613281 45.257812 47.613281 45.257812 C 47.613281 45.257812 47.628906 43.828125 47.210938 43.191406 C 46.890625 42.707031 46.285156 42.558594 46.011719 42.519531 C 45.792969 42.488281 46.152344 41.921875 46.617188 41.667969 C 47.3125 41.289062 48.539062 41.265625 49.984375 41.285156 C 51.109375 41.296875 51.4375 41.378906 51.875 41.496094 C 53.210938 41.855469 52.757812 43.246094 52.757812 46.582031 C 52.757812 47.652344 52.585938 49.152344 53.273438 49.652344 C 53.570312 49.863281 54.292969 49.683594 56.097656 46.242188 C 56.953125 44.605469 57.597656 42.691406 57.597656 42.691406 C 57.597656 42.691406 57.738281 42.347656 57.957031 42.199219 C 58.183594 42.054688 58.484375 42.101562 58.484375 42.101562 L 62.546875 42.066406 C 62.546875 42.066406 63.761719 41.910156 63.964844 42.527344 C 64.171875 43.171875 63.507812 44.6875 61.847656 47.164062 C 59.117188 51.230469 58.816406 50.855469 61.078125 53.207031 Z M 61.078125 53.207031 "/>
</g>
</svg>
